<?xml version="1.0" encoding="UTF-8" standalone="no"?>
<!-- Created with Inkscape (http://www.inkscape.org/) -->

<svg
   xmlns:dc="http://purl.org/dc/elements/1.1/"
   xmlns:cc="http://creativecommons.org/ns#"
   xmlns:rdf="http://www.w3.org/1999/02/22-rdf-syntax-ns#"
   xmlns:svg="http://www.w3.org/2000/svg"
   xmlns="http://www.w3.org/2000/svg"
   xmlns:sodipodi="http://sodipodi.sourceforge.net/DTD/sodipodi-0.dtd"
   xmlns:inkscape="http://www.inkscape.org/namespaces/inkscape"
   id="svg4141"
   version="1.1"
   inkscape:version="0.91 r13725"
   width="640"
   height="640"
   viewBox="0 0 640 640"
   sodipodi:docname="menu_icon.svg">
  <metadata
     id="metadata4147">
    <rdf:RDF>
      <cc:Work
         rdf:about="">
        <dc:format>image/svg+xml</dc:format>
        <dc:type
           rdf:resource="http://purl.org/dc/dcmitype/StillImage" />
        <dc:title></dc:title>
      </cc:Work>
    </rdf:RDF>
  </metadata>
  <defs
     id="defs4145" />
  <sodipodi:namedview
     pagecolor="#ffffff"
     bordercolor="#666666"
     borderopacity="1"
     objecttolerance="10"
     gridtolerance="10"
     guidetolerance="10"
     inkscape:pageopacity="0"
     inkscape:pageshadow="2"
     inkscape:window-width="1600"
     inkscape:window-height="1137"
     id="namedview4143"
     showgrid="false"
     inkscape:zoom="0.36875"
     inkscape:cx="320"
     inkscape:cy="320"
     inkscape:window-x="-8"
     inkscape:window-y="-8"
     inkscape:window-maximized="1"
     inkscape:current-layer="svg4141" />
  <path
     style="fill:#ff6600"
     d="m 70.218595,512.49767 c -17.60213,-6.17842 -28.6726,-22.77868 -27.20942,-40.8008 1.16275,-14.32164 9.78912,-26.94335 22.82769,-33.40042 l 6.25,-3.09517 250.624995,0 250.625,0 6.25,3.09517 c 7.98891,3.95634 15.47674,11.45606 19.37405,19.40483 4.39979,8.9736 4.39979,24.7764 0,33.75 -3.89731,7.94877 -11.38514,15.44849 -19.37405,19.40483 l -6.25,3.09517 -248.75,0.25921 c -223.7731,0.23318 -249.314125,0.0611 -254.368265,-1.71282 z m 0,-160 c -17.75893,-6.23344 -28.80017,-22.94157 -27.1114,-41.02623 1.35765,-14.53874 9.70782,-26.7262 22.72967,-33.17499 l 6.25,-3.09517 250.624995,0 250.625,0 6.25,3.09517 c 7.98891,3.95634 15.47674,11.45605 19.37405,19.40483 4.39979,8.9736 4.39979,24.7764 0,33.75 -3.89731,7.94877 -11.38514,15.44849 -19.37405,19.40483 l -6.25,3.09517 -248.75,0.25921 c -223.7731,0.23318 -249.314125,0.0612 -254.368265,-1.71282 z m 3.04082,-159.0872 c -6.38907,-1.53957 -16.84801,-7.86621 -20.67069,-12.50379 -6.9559,-8.43871 -9.12486,-14.69739 -9.12486,-26.3304 0,-8.69481 0.55075,-11.76041 3.03168,-16.875 3.84565,-7.92808 11.33079,-15.43779 19.34132,-19.40482 l 6.25,-3.09518 250.624995,0 250.625,0 6.25,3.09518 c 7.98891,3.95633 15.47674,11.45604 19.37405,19.40482 4.39979,8.9736 4.39979,24.7764 0,33.75 -3.89731,7.94877 -11.38514,15.44849 -19.37405,19.40483 l -6.25,3.09517 -248.125,0.19074 C 188.74311,194.24689 75.364515,193.91773 73.259415,193.41047 Z"
     id="path4691"
     inkscape:connector-curvature="0" />
</svg>
