<?xml version="1.0" encoding="UTF-8" standalone="no"?>
<!-- Generator: Adobe Illustrator 16.0.0, SVG Export Plug-In . SVG Version: 6.00 Build 0)  -->

<svg
   xmlns:dc="http://purl.org/dc/elements/1.1/"
   xmlns:cc="http://creativecommons.org/ns#"
   xmlns:rdf="http://www.w3.org/1999/02/22-rdf-syntax-ns#"
   xmlns:svg="http://www.w3.org/2000/svg"
   xmlns="http://www.w3.org/2000/svg"
   xmlns:sodipodi="http://sodipodi.sourceforge.net/DTD/sodipodi-0.dtd"
   xmlns:inkscape="http://www.inkscape.org/namespaces/inkscape"
   version="1.1"
   id="Layer_1"
   x="0px"
   y="0px"
   width="24px"
   height="24px"
   viewBox="0 0 24 24"
   enable-background="new 0 0 24 24"
   xml:space="preserve"
   inkscape:version="0.91 r13725"
   sodipodi:docname="search_icon_selected.svg"><metadata
     id="metadata4143"><rdf:RDF><cc:Work
         rdf:about=""><dc:format>image/svg+xml</dc:format><dc:type
           rdf:resource="http://purl.org/dc/dcmitype/StillImage" /><dc:title></dc:title></cc:Work></rdf:RDF></metadata><defs
     id="defs4141" /><sodipodi:namedview
     pagecolor="#ffffff"
     bordercolor="#666666"
     borderopacity="1"
     objecttolerance="10"
     gridtolerance="10"
     guidetolerance="10"
     inkscape:pageopacity="0"
     inkscape:pageshadow="2"
     inkscape:window-width="1600"
     inkscape:window-height="1137"
     id="namedview4139"
     showgrid="false"
     inkscape:zoom="40.333333"
     inkscape:cx="12"
     inkscape:cy="12"
     inkscape:window-x="-8"
     inkscape:window-y="-8"
     inkscape:window-maximized="1"
     inkscape:current-layer="Layer_1" /><path
     d="m 1.6654009,22.012285 c 0.6988735,0.698873 1.8324229,0.698873 2.5312963,0 l 4.6538007,-4.652909 c 0.024992,-0.02499 0.04195,-0.05445 0.065157,-0.08033 1.3888211,0.914873 3.0507651,1.450408 4.8394531,1.450408 4.863552,0 8.806876,-3.943324 8.806876,-8.8068755 0,-4.8644445 -3.943324,-8.806876 -8.806876,-8.806876 -4.8635524,0 -8.8068764,3.9424315 -8.8068764,8.806876 0,1.7877945 0.5355352,3.4506315 1.4504077,4.8394525 -0.025884,0.02321 -0.055339,0.04106 -0.08033,0.06516 l -4.6529082,4.6538 c -0.69887338,0.698874 -0.69887338,1.832423 0,2.531297 z M 8.0016746,9.9225785 c 0,-3.1784013 2.5759244,-5.7543255 5.7534334,-5.7543255 3.177508,0 5.754325,2.5759242 5.754325,5.7543255 0,3.1784005 -2.576817,5.7534325 -5.754325,5.7534325 -3.177509,0 -5.7534334,-2.575032 -5.7534334,-5.7534325 z"
     id="path4137"
     inkscape:connector-curvature="0"
     style="fill:#ffb380;fill-opacity:1" /></svg>