<svg width="80" height="79" viewBox="0 0 80 79" xmlns="http://www.w3.org/2000/svg" class="play">
  <g fill="none">
    <path d="M40.2 6.2C21.8 6.2 6.9 21.1 6.9 39.5s14.9 33.3 33.3 33.3 33.3-14.9 33.3-33.3S58.6 6.2 40.2 6.2z" id="Shape" opacity=".7" fill="#009de0" class="shape-1"></path>
    <path d="M40.2 6.2c18.4 0 33.3 14.9 33.3 33.3S58.6 72.8 40.2 72.8 6.9 57.8 6.9 39.5c0-18.3 15-33.3 33.3-33.3zm0-6C18.5.2.9 17.8.9 39.5c0 21.7 17.6 39.3 39.3 39.3 21.7 0 39.3-17.6 39.3-39.3C79.5 17.8 61.9.2 40.2.2z" id="Shape" fill="#fff" class="shape-2"></path>
    <path d="M30.5 22.6L61 40.2 30.5 57.8V22.6z" fill="#fff" class="shape-3"></path>
  </g>
</svg>
